<?xml version="1.0" encoding="utf-8" standalone="no"?>
<!DOCTYPE svg PUBLIC "-//W3C//DTD SVG 1.1//EN"
  "http://www.w3.org/Graphics/SVG/1.1/DTD/svg11.dtd">
<svg xmlns:xlink="http://www.w3.org/1999/xlink" width="712.743437pt" height="355.844062pt" viewBox="0 0 712.743437 355.844062" xmlns="http://www.w3.org/2000/svg" version="1.1">
 <metadata>
  <rdf:RDF xmlns:dc="http://purl.org/dc/elements/1.1/" xmlns:cc="http://creativecommons.org/ns#" xmlns:rdf="http://www.w3.org/1999/02/22-rdf-syntax-ns#">
   <cc:Work>
    <dc:type rdf:resource="http://purl.org/dc/dcmitype/StillImage"/>
    <dc:date>2026-07-06T11:03:37.087481</dc:date>
    <dc:format>image/svg+xml</dc:format>
    <dc:creator>
     <cc:Agent>
      <dc:title>Matplotlib v3.10.8, https://matplotlib.org/</dc:title>
     </cc:Agent>
    </dc:creator>
   </cc:Work>
  </rdf:RDF>
 </metadata>
 <defs>
  <style type="text/css">*{stroke-linejoin: round; stroke-linecap: butt}</style>
 </defs>
 <g id="figure_1">
  <g id="patch_1">
   <path d="M 0 355.844062 
L 712.743437 355.844062 
L 712.743437 0 
L 0 0 
z
" style="fill: #ffffff"/>
  </g>
  <g id="axes_1">
   <g id="patch_2">
    <path d="M 47.933438 317.32 
L 705.543437 317.32 
L 705.543437 36.36 
L 47.933438 36.36 
z
" style="fill: #ffffff"/>
   </g>
   <g id="FillBetweenPolyCollection_1">
    <defs>
     <path id="mee4df43cff" d="M 47.933437 -38.524062 
L 47.933437 -38.524062 
L 54.783542 -38.524062 
L 61.633646 -38.524062 
L 68.48375 -38.524062 
L 75.333854 -38.524062 
L 82.183958 -38.524062 
L 89.034063 -38.524062 
L 95.884167 -44.65637 
L 102.734271 -48.960301 
L 109.584375 -51.129202 
L 116.434479 -52.363425 
L 123.284583 -52.109619 
L 130.134687 -60.82426 
L 136.984792 -63.343672 
L 143.834896 -64.495977 
L 150.685 -66.672274 
L 157.535104 -66.71081 
L 164.385208 -67.475414 
L 171.235312 -77.379472 
L 178.085417 -79.4811 
L 184.935521 -82.167285 
L 191.785625 -83.535135 
L 198.635729 -90.457268 
L 205.485833 -88.990711 
L 212.335938 -88.429139 
L 219.186042 -90.573198 
L 226.036146 -90.692814 
L 232.88625 -91.924856 
L 239.736354 -93.170437 
L 246.586458 -94.193521 
L 253.436562 -94.518552 
L 260.286667 -97.709297 
L 267.136771 -97.619352 
L 273.986875 -99.498793 
L 280.836979 -99.845549 
L 287.687083 -99.031146 
L 294.537188 -99.31521 
L 301.387292 -99.886067 
L 308.237396 -100.208883 
L 315.0875 -100.572036 
L 321.937604 -106.83783 
L 328.787708 -105.73264 
L 335.637812 -105.495278 
L 342.487917 -106.54763 
L 349.338021 -105.571036 
L 356.188125 -109.657147 
L 363.038229 -109.574411 
L 369.888333 -109.679088 
L 376.738438 -110.670669 
L 383.588542 -110.897986 
L 390.438646 -112.370515 
L 397.28875 -112.308322 
L 404.138854 -113.099242 
L 410.988958 -113.572801 
L 417.839062 -119.588925 
L 424.689167 -123.621425 
L 431.539271 -124.022948 
L 438.389375 -128.242307 
L 445.239479 -129.639079 
L 452.089583 -130.21561 
L 458.939687 -134.068492 
L 465.789792 -134.905674 
L 472.639896 -134.573484 
L 479.49 -135.073587 
L 486.340104 -135.678863 
L 493.190208 -136.031604 
L 500.040312 -135.583724 
L 506.890417 -136.020079 
L 513.740521 -136.674513 
L 520.590625 -136.252088 
L 527.440729 -137.552022 
L 534.290833 -137.914816 
L 541.140937 -138.464229 
L 547.991042 -139.163462 
L 554.841146 -138.683342 
L 561.69125 -138.733704 
L 568.541354 -138.474152 
L 575.391458 -138.06674 
L 582.241562 -137.84789 
L 589.091667 -140.237601 
L 595.941771 -141.383456 
L 602.791875 -141.035648 
L 609.641979 -142.463545 
L 616.492083 -142.999481 
L 623.342187 -142.918408 
L 630.192292 -143.047734 
L 637.042396 -144.028301 
L 643.8925 -143.649564 
L 650.742604 -144.007925 
L 657.592708 -144.284776 
L 664.442812 -143.535359 
L 671.292917 -143.922557 
L 678.143021 -144.361885 
L 684.993125 -144.65051 
L 691.843229 -144.641995 
L 698.693333 -144.511964 
L 698.693333 -144.511964 
L 698.693333 -144.511964 
L 691.843229 -144.641995 
L 684.993125 -144.65051 
L 678.143021 -144.361885 
L 671.292917 -143.922557 
L 664.442812 -143.535359 
L 657.592708 -144.284776 
L 650.742604 -144.007925 
L 643.8925 -143.649564 
L 637.042396 -144.028301 
L 630.192292 -143.047734 
L 623.342187 -142.918408 
L 616.492083 -142.999481 
L 609.641979 -142.463545 
L 602.791875 -141.035648 
L 595.941771 -141.383456 
L 589.091667 -140.237601 
L 582.241562 -137.84789 
L 575.391458 -138.06674 
L 568.541354 -138.474152 
L 561.69125 -138.733704 
L 554.841146 -138.683342 
L 547.991042 -139.163462 
L 541.140937 -138.464229 
L 534.290833 -137.914816 
L 527.440729 -137.552022 
L 520.590625 -136.252088 
L 513.740521 -136.674513 
L 506.890417 -136.020079 
L 500.040312 -135.583724 
L 493.190208 -136.031604 
L 486.340104 -135.678863 
L 479.49 -135.073587 
L 472.639896 -134.573484 
L 465.789792 -134.905674 
L 458.939687 -134.068492 
L 452.089583 -130.21561 
L 445.239479 -129.639079 
L 438.389375 -128.242307 
L 431.539271 -124.022948 
L 424.689167 -123.621425 
L 417.839062 -119.588925 
L 410.988958 -113.572801 
L 404.138854 -113.099242 
L 397.28875 -112.308322 
L 390.438646 -112.370515 
L 383.588542 -110.897986 
L 376.738438 -110.670669 
L 369.888333 -109.679088 
L 363.038229 -109.574411 
L 356.188125 -109.657147 
L 349.338021 -105.571036 
L 342.487917 -106.54763 
L 335.637812 -105.495278 
L 328.787708 -105.73264 
L 321.937604 -106.83783 
L 315.0875 -100.572036 
L 308.237396 -100.208883 
L 301.387292 -99.886067 
L 294.537188 -99.31521 
L 287.687083 -99.031146 
L 280.836979 -99.845549 
L 273.986875 -99.498793 
L 267.136771 -97.619352 
L 260.286667 -97.709297 
L 253.436562 -94.518552 
L 246.586458 -94.193521 
L 239.736354 -93.170437 
L 232.88625 -91.924856 
L 226.036146 -90.692814 
L 219.186042 -90.573198 
L 212.335938 -88.429139 
L 205.485833 -88.990711 
L 198.635729 -90.457268 
L 191.785625 -83.535135 
L 184.935521 -82.167285 
L 178.085417 -79.4811 
L 171.235312 -77.379472 
L 164.385208 -67.475414 
L 157.535104 -66.71081 
L 150.685 -66.672274 
L 143.834896 -64.495977 
L 136.984792 -63.343672 
L 130.134687 -60.82426 
L 123.284583 -52.109619 
L 116.434479 -52.363425 
L 109.584375 -51.129202 
L 102.734271 -48.960301 
L 95.884167 -44.65637 
L 89.034063 -38.524062 
L 82.183958 -38.524062 
L 75.333854 -38.524062 
L 68.48375 -38.524062 
L 61.633646 -38.524062 
L 54.783542 -38.524062 
L 47.933437 -38.524062 
z
" style="stroke: #90caf9; stroke-opacity: 0.45"/>
    </defs>
    <g clip-path="url(#p921f083329)">
     <use xlink:href="#mee4df43cff" x="0" y="355.844062" style="fill: #90caf9; fill-opacity: 0.45; stroke: #90caf9; stroke-opacity: 0.45"/>
    </g>
   </g>
   <g id="FillBetweenPolyCollection_2">
    <defs>
     <path id="m2188457c82" d="M 47.933437 -38.524062 
L 47.933437 -38.524062 
L 54.783542 -38.524062 
L 61.633646 -38.524062 
L 68.48375 -38.524062 
L 75.333854 -38.524062 
L 82.183958 -38.524062 
L 89.034063 -38.524062 
L 95.884167 -38.524062 
L 102.734271 -38.524062 
L 109.584375 -38.524062 
L 116.434479 -38.524062 
L 123.284583 -38.524062 
L 130.134687 -39.92896 
L 136.984792 -40.100953 
L 143.834896 -40.431228 
L 150.685 -40.435043 
L 157.535104 -40.659801 
L 164.385208 -40.698391 
L 171.235312 -42.861207 
L 178.085417 -43.371793 
L 184.935521 -43.934784 
L 191.785625 -44.242764 
L 198.635729 -46.070359 
L 205.485833 -45.960689 
L 212.335938 -46.457619 
L 219.186042 -46.523193 
L 226.036146 -46.510972 
L 232.88625 -46.73512 
L 239.736354 -46.920692 
L 246.586458 -47.362158 
L 253.436562 -46.869806 
L 260.286667 -47.005141 
L 267.136771 -47.116401 
L 273.986875 -47.035962 
L 280.836979 -47.321852 
L 287.687083 -47.267235 
L 294.537188 -47.360216 
L 301.387292 -47.052527 
L 308.237396 -46.948628 
L 315.0875 -46.96529 
L 321.937604 -48.49961 
L 328.787708 -48.212655 
L 335.637812 -48.14091 
L 342.487917 -48.498856 
L 349.338021 -48.161165 
L 356.188125 -48.256846 
L 363.038229 -48.380653 
L 369.888333 -48.092421 
L 376.738438 -47.347102 
L 383.588542 -47.80067 
L 390.438646 -46.855547 
L 397.28875 -47.278493 
L 404.138854 -47.794663 
L 410.988958 -47.415444 
L 417.839062 -48.151061 
L 424.689167 -49.329349 
L 431.539271 -48.827086 
L 438.389375 -50.417733 
L 445.239479 -51.730618 
L 452.089583 -51.517565 
L 458.939687 -53.685785 
L 465.789792 -54.21241 
L 472.639896 -54.090398 
L 479.49 -54.007432 
L 486.340104 -53.978287 
L 493.190208 -54.429939 
L 500.040312 -54.453373 
L 506.890417 -54.299813 
L 513.740521 -54.149449 
L 520.590625 -54.416835 
L 527.440729 -56.515658 
L 534.290833 -56.688725 
L 541.140937 -57.235318 
L 547.991042 -57.463899 
L 554.841146 -57.513389 
L 561.69125 -57.972539 
L 568.541354 -57.783755 
L 575.391458 -58.120642 
L 582.241562 -58.013448 
L 589.091667 -63.393917 
L 595.941771 -65.651318 
L 602.791875 -65.515788 
L 609.641979 -68.710963 
L 616.492083 -69.226362 
L 623.342187 -68.897748 
L 630.192292 -68.738529 
L 637.042396 -69.334958 
L 643.8925 -69.053059 
L 650.742604 -68.967145 
L 657.592708 -69.369595 
L 664.442812 -68.782948 
L 671.292917 -69.243131 
L 678.143021 -69.352323 
L 684.993125 -69.272089 
L 691.843229 -69.273262 
L 698.693333 -69.53888 
L 698.693333 -69.53888 
L 698.693333 -69.53888 
L 691.843229 -69.273262 
L 684.993125 -69.272089 
L 678.143021 -69.352323 
L 671.292917 -69.243131 
L 664.442812 -68.782948 
L 657.592708 -69.369595 
L 650.742604 -68.967145 
L 643.8925 -69.053059 
L 637.042396 -69.334958 
L 630.192292 -68.738529 
L 623.342187 -68.897748 
L 616.492083 -69.226362 
L 609.641979 -68.710963 
L 602.791875 -65.515788 
L 595.941771 -65.651318 
L 589.091667 -63.393917 
L 582.241562 -58.013448 
L 575.391458 -58.120642 
L 568.541354 -57.783755 
L 561.69125 -57.972539 
L 554.841146 -57.513389 
L 547.991042 -57.463899 
L 541.140937 -57.235318 
L 534.290833 -56.688725 
L 527.440729 -56.515658 
L 520.590625 -54.416835 
L 513.740521 -54.149449 
L 506.890417 -54.299813 
L 500.040312 -54.453373 
L 493.190208 -54.429939 
L 486.340104 -53.978287 
L 479.49 -54.007432 
L 472.639896 -54.090398 
L 465.789792 -54.21241 
L 458.939687 -53.685785 
L 452.089583 -51.517565 
L 445.239479 -51.730618 
L 438.389375 -50.417733 
L 431.539271 -48.827086 
L 424.689167 -49.329349 
L 417.839062 -48.151061 
L 410.988958 -47.415444 
L 404.138854 -47.794663 
L 397.28875 -47.278493 
L 390.438646 -46.855547 
L 383.588542 -47.80067 
L 376.738438 -47.347102 
L 369.888333 -48.092421 
L 363.038229 -48.380653 
L 356.188125 -48.256846 
L 349.338021 -48.161165 
L 342.487917 -48.498856 
L 335.637812 -48.14091 
L 328.787708 -48.212655 
L 321.937604 -48.49961 
L 315.0875 -46.96529 
L 308.237396 -46.948628 
L 301.387292 -47.052527 
L 294.537188 -47.360216 
L 287.687083 -47.267235 
L 280.836979 -47.321852 
L 273.986875 -47.035962 
L 267.136771 -47.116401 
L 260.286667 -47.005141 
L 253.436562 -46.869806 
L 246.586458 -47.362158 
L 239.736354 -46.920692 
L 232.88625 -46.73512 
L 226.036146 -46.510972 
L 219.186042 -46.523193 
L 212.335938 -46.457619 
L 205.485833 -45.960689 
L 198.635729 -46.070359 
L 191.785625 -44.242764 
L 184.935521 -43.934784 
L 178.085417 -43.371793 
L 171.235312 -42.861207 
L 164.385208 -40.698391 
L 157.535104 -40.659801 
L 150.685 -40.435043 
L 143.834896 -40.431228 
L 136.984792 -40.100953 
L 130.134687 -39.92896 
L 123.284583 -38.524062 
L 116.434479 -38.524062 
L 109.584375 -38.524062 
L 102.734271 -38.524062 
L 95.884167 -38.524062 
L 89.034063 -38.524062 
L 82.183958 -38.524062 
L 75.333854 -38.524062 
L 68.48375 -38.524062 
L 61.633646 -38.524062 
L 54.783542 -38.524062 
L 47.933437 -38.524062 
z
" style="stroke: #f4a261; stroke-opacity: 0.28"/>
    </defs>
    <g clip-path="url(#p921f083329)">
     <use xlink:href="#m2188457c82" x="0" y="355.844062" style="fill: #f4a261; fill-opacity: 0.28; stroke: #f4a261; stroke-opacity: 0.28"/>
    </g>
   </g>
   <g id="matplotlib.axis_1">
    <g id="xtick_1">
     <g id="line2d_1">
      <defs>
       <path id="m04a86cc104" d="M 0 0 
L 0 3.5 
" style="stroke: #000000; stroke-width: 0.8"/>
      </defs>
      <g>
       <use xlink:href="#m04a86cc104" x="116.434479" y="317.32" style="stroke: #000000; stroke-width: 0.8"/>
      </g>
     </g>
     <g id="text_1">
      <!-- 1940 -->
      <g transform="translate(103.709479 331.918437) scale(0.1 -0.1)">
       <defs>
        <path id="DejaVuSans-31" d="M 794 531 
L 1825 531 
L 1825 4091 
L 703 3866 
L 703 4441 
L 1819 4666 
L 2450 4666 
L 2450 531 
L 3481 531 
L 3481 0 
L 794 0 
L 794 531 
z
" transform="scale(0.015625)"/>
        <path id="DejaVuSans-39" d="M 703 97 
L 703 672 
Q 941 559 1184 500 
Q 1428 441 1663 441 
Q 2288 441 2617 861 
Q 2947 1281 2994 2138 
Q 2813 1869 2534 1725 
Q 2256 1581 1919 1581 
Q 1219 1581 811 2004 
Q 403 2428 403 3163 
Q 403 3881 828 4315 
Q 1253 4750 1959 4750 
Q 2769 4750 3195 4129 
Q 3622 3509 3622 2328 
Q 3622 1225 3098 567 
Q 2575 -91 1691 -91 
Q 1453 -91 1209 -44 
Q 966 3 703 97 
z
M 1959 2075 
Q 2384 2075 2632 2365 
Q 2881 2656 2881 3163 
Q 2881 3666 2632 3958 
Q 2384 4250 1959 4250 
Q 1534 4250 1286 3958 
Q 1038 3666 1038 3163 
Q 1038 2656 1286 2365 
Q 1534 2075 1959 2075 
z
" transform="scale(0.015625)"/>
        <path id="DejaVuSans-34" d="M 2419 4116 
L 825 1625 
L 2419 1625 
L 2419 4116 
z
M 2253 4666 
L 3047 4666 
L 3047 1625 
L 3713 1625 
L 3713 1100 
L 3047 1100 
L 3047 0 
L 2419 0 
L 2419 1100 
L 313 1100 
L 313 1709 
L 2253 4666 
z
" transform="scale(0.015625)"/>
        <path id="DejaVuSans-30" d="M 2034 4250 
Q 1547 4250 1301 3770 
Q 1056 3291 1056 2328 
Q 1056 1369 1301 889 
Q 1547 409 2034 409 
Q 2525 409 2770 889 
Q 3016 1369 3016 2328 
Q 3016 3291 2770 3770 
Q 2525 4250 2034 4250 
z
M 2034 4750 
Q 2819 4750 3233 4129 
Q 3647 3509 3647 2328 
Q 3647 1150 3233 529 
Q 2819 -91 2034 -91 
Q 1250 -91 836 529 
Q 422 1150 422 2328 
Q 422 3509 836 4129 
Q 1250 4750 2034 4750 
z
" transform="scale(0.015625)"/>
       </defs>
       <use xlink:href="#DejaVuSans-31"/>
       <use xlink:href="#DejaVuSans-39" transform="translate(63.623047 0)"/>
       <use xlink:href="#DejaVuSans-34" transform="translate(127.246094 0)"/>
       <use xlink:href="#DejaVuSans-30" transform="translate(190.869141 0)"/>
      </g>
     </g>
    </g>
    <g id="xtick_2">
     <g id="line2d_2">
      <g>
       <use xlink:href="#m04a86cc104" x="253.436562" y="317.32" style="stroke: #000000; stroke-width: 0.8"/>
      </g>
     </g>
     <g id="text_2">
      <!-- 1960 -->
      <g transform="translate(240.711562 331.918437) scale(0.1 -0.1)">
       <defs>
        <path id="DejaVuSans-36" d="M 2113 2584 
Q 1688 2584 1439 2293 
Q 1191 2003 1191 1497 
Q 1191 994 1439 701 
Q 1688 409 2113 409 
Q 2538 409 2786 701 
Q 3034 994 3034 1497 
Q 3034 2003 2786 2293 
Q 2538 2584 2113 2584 
z
M 3366 4563 
L 3366 3988 
Q 3128 4100 2886 4159 
Q 2644 4219 2406 4219 
Q 1781 4219 1451 3797 
Q 1122 3375 1075 2522 
Q 1259 2794 1537 2939 
Q 1816 3084 2150 3084 
Q 2853 3084 3261 2657 
Q 3669 2231 3669 1497 
Q 3669 778 3244 343 
Q 2819 -91 2113 -91 
Q 1303 -91 875 529 
Q 447 1150 447 2328 
Q 447 3434 972 4092 
Q 1497 4750 2381 4750 
Q 2619 4750 2861 4703 
Q 3103 4656 3366 4563 
z
" transform="scale(0.015625)"/>
       </defs>
       <use xlink:href="#DejaVuSans-31"/>
       <use xlink:href="#DejaVuSans-39" transform="translate(63.623047 0)"/>
       <use xlink:href="#DejaVuSans-36" transform="translate(127.246094 0)"/>
       <use xlink:href="#DejaVuSans-30" transform="translate(190.869141 0)"/>
      </g>
     </g>
    </g>
    <g id="xtick_3">
     <g id="line2d_3">
      <g>
       <use xlink:href="#m04a86cc104" x="390.438646" y="317.32" style="stroke: #000000; stroke-width: 0.8"/>
      </g>
     </g>
     <g id="text_3">
      <!-- 1980 -->
      <g transform="translate(377.713646 331.918437) scale(0.1 -0.1)">
       <defs>
        <path id="DejaVuSans-38" d="M 2034 2216 
Q 1584 2216 1326 1975 
Q 1069 1734 1069 1313 
Q 1069 891 1326 650 
Q 1584 409 2034 409 
Q 2484 409 2743 651 
Q 3003 894 3003 1313 
Q 3003 1734 2745 1975 
Q 2488 2216 2034 2216 
z
M 1403 2484 
Q 997 2584 770 2862 
Q 544 3141 544 3541 
Q 544 4100 942 4425 
Q 1341 4750 2034 4750 
Q 2731 4750 3128 4425 
Q 3525 4100 3525 3541 
Q 3525 3141 3298 2862 
Q 3072 2584 2669 2484 
Q 3125 2378 3379 2068 
Q 3634 1759 3634 1313 
Q 3634 634 3220 271 
Q 2806 -91 2034 -91 
Q 1263 -91 848 271 
Q 434 634 434 1313 
Q 434 1759 690 2068 
Q 947 2378 1403 2484 
z
M 1172 3481 
Q 1172 3119 1398 2916 
Q 1625 2713 2034 2713 
Q 2441 2713 2670 2916 
Q 2900 3119 2900 3481 
Q 2900 3844 2670 4047 
Q 2441 4250 2034 4250 
Q 1625 4250 1398 4047 
Q 1172 3844 1172 3481 
z
" transform="scale(0.015625)"/>
       </defs>
       <use xlink:href="#DejaVuSans-31"/>
       <use xlink:href="#DejaVuSans-39" transform="translate(63.623047 0)"/>
       <use xlink:href="#DejaVuSans-38" transform="translate(127.246094 0)"/>
       <use xlink:href="#DejaVuSans-30" transform="translate(190.869141 0)"/>
      </g>
     </g>
    </g>
    <g id="xtick_4">
     <g id="line2d_4">
      <g>
       <use xlink:href="#m04a86cc104" x="527.440729" y="317.32" style="stroke: #000000; stroke-width: 0.8"/>
      </g>
     </g>
     <g id="text_4">
      <!-- 2000 -->
      <g transform="translate(514.715729 331.918437) scale(0.1 -0.1)">
       <defs>
        <path id="DejaVuSans-32" d="M 1228 531 
L 3431 531 
L 3431 0 
L 469 0 
L 469 531 
Q 828 903 1448 1529 
Q 2069 2156 2228 2338 
Q 2531 2678 2651 2914 
Q 2772 3150 2772 3378 
Q 2772 3750 2511 3984 
Q 2250 4219 1831 4219 
Q 1534 4219 1204 4116 
Q 875 4013 500 3803 
L 500 4441 
Q 881 4594 1212 4672 
Q 1544 4750 1819 4750 
Q 2544 4750 2975 4387 
Q 3406 4025 3406 3419 
Q 3406 3131 3298 2873 
Q 3191 2616 2906 2266 
Q 2828 2175 2409 1742 
Q 1991 1309 1228 531 
z
" transform="scale(0.015625)"/>
       </defs>
       <use xlink:href="#DejaVuSans-32"/>
       <use xlink:href="#DejaVuSans-30" transform="translate(63.623047 0)"/>
       <use xlink:href="#DejaVuSans-30" transform="translate(127.246094 0)"/>
       <use xlink:href="#DejaVuSans-30" transform="translate(190.869141 0)"/>
      </g>
     </g>
    </g>
    <g id="xtick_5">
     <g id="line2d_5">
      <g>
       <use xlink:href="#m04a86cc104" x="664.442812" y="317.32" style="stroke: #000000; stroke-width: 0.8"/>
      </g>
     </g>
     <g id="text_5">
      <!-- 2020 -->
      <g transform="translate(651.717812 331.918437) scale(0.1 -0.1)">
       <use xlink:href="#DejaVuSans-32"/>
       <use xlink:href="#DejaVuSans-30" transform="translate(63.623047 0)"/>
       <use xlink:href="#DejaVuSans-32" transform="translate(127.246094 0)"/>
       <use xlink:href="#DejaVuSans-30" transform="translate(190.869141 0)"/>
      </g>
     </g>
    </g>
    <g id="text_6">
     <!-- Year -->
     <g transform="translate(365.092187 346.356406) scale(0.11 -0.11)">
      <defs>
       <path id="DejaVuSans-59" d="M -13 4666 
L 666 4666 
L 1959 2747 
L 3244 4666 
L 3922 4666 
L 2272 2222 
L 2272 0 
L 1638 0 
L 1638 2222 
L -13 4666 
z
" transform="scale(0.015625)"/>
       <path id="DejaVuSans-65" d="M 3597 1894 
L 3597 1613 
L 953 1613 
Q 991 1019 1311 708 
Q 1631 397 2203 397 
Q 2534 397 2845 478 
Q 3156 559 3463 722 
L 3463 178 
Q 3153 47 2828 -22 
Q 2503 -91 2169 -91 
Q 1331 -91 842 396 
Q 353 884 353 1716 
Q 353 2575 817 3079 
Q 1281 3584 2069 3584 
Q 2775 3584 3186 3129 
Q 3597 2675 3597 1894 
z
M 3022 2063 
Q 3016 2534 2758 2815 
Q 2500 3097 2075 3097 
Q 1594 3097 1305 2825 
Q 1016 2553 972 2059 
L 3022 2063 
z
" transform="scale(0.015625)"/>
       <path id="DejaVuSans-61" d="M 2194 1759 
Q 1497 1759 1228 1600 
Q 959 1441 959 1056 
Q 959 750 1161 570 
Q 1363 391 1709 391 
Q 2188 391 2477 730 
Q 2766 1069 2766 1631 
L 2766 1759 
L 2194 1759 
z
M 3341 1997 
L 3341 0 
L 2766 0 
L 2766 531 
Q 2569 213 2275 61 
Q 1981 -91 1556 -91 
Q 1019 -91 701 211 
Q 384 513 384 1019 
Q 384 1609 779 1909 
Q 1175 2209 1959 2209 
L 2766 2209 
L 2766 2266 
Q 2766 2663 2505 2880 
Q 2244 3097 1772 3097 
Q 1472 3097 1187 3025 
Q 903 2953 641 2809 
L 641 3341 
Q 956 3463 1253 3523 
Q 1550 3584 1831 3584 
Q 2591 3584 2966 3190 
Q 3341 2797 3341 1997 
z
" transform="scale(0.015625)"/>
       <path id="DejaVuSans-72" d="M 2631 2963 
Q 2534 3019 2420 3045 
Q 2306 3072 2169 3072 
Q 1681 3072 1420 2755 
Q 1159 2438 1159 1844 
L 1159 0 
L 581 0 
L 581 3500 
L 1159 3500 
L 1159 2956 
Q 1341 3275 1631 3429 
Q 1922 3584 2338 3584 
Q 2397 3584 2469 3576 
Q 2541 3569 2628 3553 
L 2631 2963 
z
" transform="scale(0.015625)"/>
      </defs>
      <use xlink:href="#DejaVuSans-59"/>
      <use xlink:href="#DejaVuSans-65" transform="translate(47.833984 0)"/>
      <use xlink:href="#DejaVuSans-61" transform="translate(109.357422 0)"/>
      <use xlink:href="#DejaVuSans-72" transform="translate(170.636719 0)"/>
     </g>
    </g>
   </g>
   <g id="matplotlib.axis_2">
    <g id="ytick_1">
     <g id="line2d_6">
      <path d="M 47.933438 317.32 
L 705.543437 317.32 
" clip-path="url(#p921f083329)" style="fill: none; stroke: #b0b0b0; stroke-opacity: 0.5; stroke-width: 0.4; stroke-linecap: square"/>
     </g>
     <g id="line2d_7">
      <defs>
       <path id="med473ad40b" d="M 0 0 
L -3.5 0 
" style="stroke: #000000; stroke-width: 0.8"/>
      </defs>
      <g>
       <use xlink:href="#med473ad40b" x="47.933438" y="317.32" style="stroke: #000000; stroke-width: 0.8"/>
      </g>
     </g>
     <g id="text_7">
      <!-- 0 -->
      <g transform="translate(34.570938 321.119219) scale(0.1 -0.1)">
       <use xlink:href="#DejaVuSans-30"/>
      </g>
     </g>
    </g>
    <g id="ytick_2">
     <g id="line2d_8">
      <path d="M 47.933438 261.128 
L 705.543437 261.128 
" clip-path="url(#p921f083329)" style="fill: none; stroke: #b0b0b0; stroke-opacity: 0.5; stroke-width: 0.4; stroke-linecap: square"/>
     </g>
     <g id="line2d_9">
      <g>
       <use xlink:href="#med473ad40b" x="47.933438" y="261.128" style="stroke: #000000; stroke-width: 0.8"/>
      </g>
     </g>
     <g id="text_8">
      <!-- 20 -->
      <g transform="translate(28.208438 264.927219) scale(0.1 -0.1)">
       <use xlink:href="#DejaVuSans-32"/>
       <use xlink:href="#DejaVuSans-30" transform="translate(63.623047 0)"/>
      </g>
     </g>
    </g>
    <g id="ytick_3">
     <g id="line2d_10">
      <path d="M 47.933438 204.936 
L 705.543437 204.936 
" clip-path="url(#p921f083329)" style="fill: none; stroke: #b0b0b0; stroke-opacity: 0.5; stroke-width: 0.4; stroke-linecap: square"/>
     </g>
     <g id="line2d_11">
      <g>
       <use xlink:href="#med473ad40b" x="47.933438" y="204.936" style="stroke: #000000; stroke-width: 0.8"/>
      </g>
     </g>
     <g id="text_9">
      <!-- 40 -->
      <g transform="translate(28.208438 208.735219) scale(0.1 -0.1)">
       <use xlink:href="#DejaVuSans-34"/>
       <use xlink:href="#DejaVuSans-30" transform="translate(63.623047 0)"/>
      </g>
     </g>
    </g>
    <g id="ytick_4">
     <g id="line2d_12">
      <path d="M 47.933438 148.744 
L 705.543437 148.744 
" clip-path="url(#p921f083329)" style="fill: none; stroke: #b0b0b0; stroke-opacity: 0.5; stroke-width: 0.4; stroke-linecap: square"/>
     </g>
     <g id="line2d_13">
      <g>
       <use xlink:href="#med473ad40b" x="47.933438" y="148.744" style="stroke: #000000; stroke-width: 0.8"/>
      </g>
     </g>
     <g id="text_10">
      <!-- 60 -->
      <g transform="translate(28.208438 152.543219) scale(0.1 -0.1)">
       <use xlink:href="#DejaVuSans-36"/>
       <use xlink:href="#DejaVuSans-30" transform="translate(63.623047 0)"/>
      </g>
     </g>
    </g>
    <g id="ytick_5">
     <g id="line2d_14">
      <path d="M 47.933438 92.552 
L 705.543437 92.552 
" clip-path="url(#p921f083329)" style="fill: none; stroke: #b0b0b0; stroke-opacity: 0.5; stroke-width: 0.4; stroke-linecap: square"/>
     </g>
     <g id="line2d_15">
      <g>
       <use xlink:href="#med473ad40b" x="47.933438" y="92.552" style="stroke: #000000; stroke-width: 0.8"/>
      </g>
     </g>
     <g id="text_11">
      <!-- 80 -->
      <g transform="translate(28.208438 96.351219) scale(0.1 -0.1)">
       <use xlink:href="#DejaVuSans-38"/>
       <use xlink:href="#DejaVuSans-30" transform="translate(63.623047 0)"/>
      </g>
     </g>
    </g>
    <g id="ytick_6">
     <g id="line2d_16">
      <path d="M 47.933438 36.36 
L 705.543437 36.36 
" clip-path="url(#p921f083329)" style="fill: none; stroke: #b0b0b0; stroke-opacity: 0.5; stroke-width: 0.4; stroke-linecap: square"/>
     </g>
     <g id="line2d_17">
      <g>
       <use xlink:href="#med473ad40b" x="47.933438" y="36.36" style="stroke: #000000; stroke-width: 0.8"/>
      </g>
     </g>
     <g id="text_12">
      <!-- 100 -->
      <g transform="translate(21.845938 40.159219) scale(0.1 -0.1)">
       <use xlink:href="#DejaVuSans-31"/>
       <use xlink:href="#DejaVuSans-30" transform="translate(63.623047 0)"/>
       <use xlink:href="#DejaVuSans-30" transform="translate(127.246094 0)"/>
      </g>
     </g>
    </g>
    <g id="text_13">
     <!-- New infections with resistance (%) -->
     <g transform="translate(15.558281 271.972812) rotate(-90) scale(0.11 -0.11)">
      <defs>
       <path id="DejaVuSans-4e" d="M 628 4666 
L 1478 4666 
L 3547 763 
L 3547 4666 
L 4159 4666 
L 4159 0 
L 3309 0 
L 1241 3903 
L 1241 0 
L 628 0 
L 628 4666 
z
" transform="scale(0.015625)"/>
       <path id="DejaVuSans-77" d="M 269 3500 
L 844 3500 
L 1563 769 
L 2278 3500 
L 2956 3500 
L 3675 769 
L 4391 3500 
L 4966 3500 
L 4050 0 
L 3372 0 
L 2619 2869 
L 1863 0 
L 1184 0 
L 269 3500 
z
" transform="scale(0.015625)"/>
       <path id="DejaVuSans-20" transform="scale(0.015625)"/>
       <path id="DejaVuSans-69" d="M 603 3500 
L 1178 3500 
L 1178 0 
L 603 0 
L 603 3500 
z
M 603 4863 
L 1178 4863 
L 1178 4134 
L 603 4134 
L 603 4863 
z
" transform="scale(0.015625)"/>
       <path id="DejaVuSans-6e" d="M 3513 2113 
L 3513 0 
L 2938 0 
L 2938 2094 
Q 2938 2591 2744 2837 
Q 2550 3084 2163 3084 
Q 1697 3084 1428 2787 
Q 1159 2491 1159 1978 
L 1159 0 
L 581 0 
L 581 3500 
L 1159 3500 
L 1159 2956 
Q 1366 3272 1645 3428 
Q 1925 3584 2291 3584 
Q 2894 3584 3203 3211 
Q 3513 2838 3513 2113 
z
" transform="scale(0.015625)"/>
       <path id="DejaVuSans-66" d="M 2375 4863 
L 2375 4384 
L 1825 4384 
Q 1516 4384 1395 4259 
Q 1275 4134 1275 3809 
L 1275 3500 
L 2222 3500 
L 2222 3053 
L 1275 3053 
L 1275 0 
L 697 0 
L 697 3053 
L 147 3053 
L 147 3500 
L 697 3500 
L 697 3744 
Q 697 4328 969 4595 
Q 1241 4863 1831 4863 
L 2375 4863 
z
" transform="scale(0.015625)"/>
       <path id="DejaVuSans-63" d="M 3122 3366 
L 3122 2828 
Q 2878 2963 2633 3030 
Q 2388 3097 2138 3097 
Q 1578 3097 1268 2742 
Q 959 2388 959 1747 
Q 959 1106 1268 751 
Q 1578 397 2138 397 
Q 2388 397 2633 464 
Q 2878 531 3122 666 
L 3122 134 
Q 2881 22 2623 -34 
Q 2366 -91 2075 -91 
Q 1284 -91 818 406 
Q 353 903 353 1747 
Q 353 2603 823 3093 
Q 1294 3584 2113 3584 
Q 2378 3584 2631 3529 
Q 2884 3475 3122 3366 
z
" transform="scale(0.015625)"/>
       <path id="DejaVuSans-74" d="M 1172 4494 
L 1172 3500 
L 2356 3500 
L 2356 3053 
L 1172 3053 
L 1172 1153 
Q 1172 725 1289 603 
Q 1406 481 1766 481 
L 2356 481 
L 2356 0 
L 1766 0 
Q 1100 0 847 248 
Q 594 497 594 1153 
L 594 3053 
L 172 3053 
L 172 3500 
L 594 3500 
L 594 4494 
L 1172 4494 
z
" transform="scale(0.015625)"/>
       <path id="DejaVuSans-6f" d="M 1959 3097 
Q 1497 3097 1228 2736 
Q 959 2375 959 1747 
Q 959 1119 1226 758 
Q 1494 397 1959 397 
Q 2419 397 2687 759 
Q 2956 1122 2956 1747 
Q 2956 2369 2687 2733 
Q 2419 3097 1959 3097 
z
M 1959 3584 
Q 2709 3584 3137 3096 
Q 3566 2609 3566 1747 
Q 3566 888 3137 398 
Q 2709 -91 1959 -91 
Q 1206 -91 779 398 
Q 353 888 353 1747 
Q 353 2609 779 3096 
Q 1206 3584 1959 3584 
z
" transform="scale(0.015625)"/>
       <path id="DejaVuSans-73" d="M 2834 3397 
L 2834 2853 
Q 2591 2978 2328 3040 
Q 2066 3103 1784 3103 
Q 1356 3103 1142 2972 
Q 928 2841 928 2578 
Q 928 2378 1081 2264 
Q 1234 2150 1697 2047 
L 1894 2003 
Q 2506 1872 2764 1633 
Q 3022 1394 3022 966 
Q 3022 478 2636 193 
Q 2250 -91 1575 -91 
Q 1294 -91 989 -36 
Q 684 19 347 128 
L 347 722 
Q 666 556 975 473 
Q 1284 391 1588 391 
Q 1994 391 2212 530 
Q 2431 669 2431 922 
Q 2431 1156 2273 1281 
Q 2116 1406 1581 1522 
L 1381 1569 
Q 847 1681 609 1914 
Q 372 2147 372 2553 
Q 372 3047 722 3315 
Q 1072 3584 1716 3584 
Q 2034 3584 2315 3537 
Q 2597 3491 2834 3397 
z
" transform="scale(0.015625)"/>
       <path id="DejaVuSans-68" d="M 3513 2113 
L 3513 0 
L 2938 0 
L 2938 2094 
Q 2938 2591 2744 2837 
Q 2550 3084 2163 3084 
Q 1697 3084 1428 2787 
Q 1159 2491 1159 1978 
L 1159 0 
L 581 0 
L 581 4863 
L 1159 4863 
L 1159 2956 
Q 1366 3272 1645 3428 
Q 1925 3584 2291 3584 
Q 2894 3584 3203 3211 
Q 3513 2838 3513 2113 
z
" transform="scale(0.015625)"/>
       <path id="DejaVuSans-28" d="M 1984 4856 
Q 1566 4138 1362 3434 
Q 1159 2731 1159 2009 
Q 1159 1288 1364 580 
Q 1569 -128 1984 -844 
L 1484 -844 
Q 1016 -109 783 600 
Q 550 1309 550 2009 
Q 550 2706 781 3412 
Q 1013 4119 1484 4856 
L 1984 4856 
z
" transform="scale(0.015625)"/>
       <path id="DejaVuSans-25" d="M 4653 2053 
Q 4381 2053 4226 1822 
Q 4072 1591 4072 1178 
Q 4072 772 4226 539 
Q 4381 306 4653 306 
Q 4919 306 5073 539 
Q 5228 772 5228 1178 
Q 5228 1588 5073 1820 
Q 4919 2053 4653 2053 
z
M 4653 2450 
Q 5147 2450 5437 2106 
Q 5728 1763 5728 1178 
Q 5728 594 5436 251 
Q 5144 -91 4653 -91 
Q 4153 -91 3862 251 
Q 3572 594 3572 1178 
Q 3572 1766 3864 2108 
Q 4156 2450 4653 2450 
z
M 1428 4353 
Q 1159 4353 1004 4120 
Q 850 3888 850 3481 
Q 850 3069 1003 2837 
Q 1156 2606 1428 2606 
Q 1700 2606 1854 2837 
Q 2009 3069 2009 3481 
Q 2009 3884 1853 4118 
Q 1697 4353 1428 4353 
z
M 4250 4750 
L 4750 4750 
L 1831 -91 
L 1331 -91 
L 4250 4750 
z
M 1428 4750 
Q 1922 4750 2215 4408 
Q 2509 4066 2509 3481 
Q 2509 2891 2217 2550 
Q 1925 2209 1428 2209 
Q 931 2209 642 2551 
Q 353 2894 353 3481 
Q 353 4063 643 4406 
Q 934 4750 1428 4750 
z
" transform="scale(0.015625)"/>
       <path id="DejaVuSans-29" d="M 513 4856 
L 1013 4856 
Q 1481 4119 1714 3412 
Q 1947 2706 1947 2009 
Q 1947 1309 1714 600 
Q 1481 -109 1013 -844 
L 513 -844 
Q 928 -128 1133 580 
Q 1338 1288 1338 2009 
Q 1338 2731 1133 3434 
Q 928 4138 513 4856 
z
" transform="scale(0.015625)"/>
      </defs>
      <use xlink:href="#DejaVuSans-4e"/>
      <use xlink:href="#DejaVuSans-65" transform="translate(74.804688 0)"/>
      <use xlink:href="#DejaVuSans-77" transform="translate(136.328125 0)"/>
      <use xlink:href="#DejaVuSans-20" transform="translate(218.115234 0)"/>
      <use xlink:href="#DejaVuSans-69" transform="translate(249.902344 0)"/>
      <use xlink:href="#DejaVuSans-6e" transform="translate(277.685547 0)"/>
      <use xlink:href="#DejaVuSans-66" transform="translate(341.064453 0)"/>
      <use xlink:href="#DejaVuSans-65" transform="translate(376.269531 0)"/>
      <use xlink:href="#DejaVuSans-63" transform="translate(437.792969 0)"/>
      <use xlink:href="#DejaVuSans-74" transform="translate(492.773438 0)"/>
      <use xlink:href="#DejaVuSans-69" transform="translate(531.982422 0)"/>
      <use xlink:href="#DejaVuSans-6f" transform="translate(559.765625 0)"/>
      <use xlink:href="#DejaVuSans-6e" transform="translate(620.947266 0)"/>
      <use xlink:href="#DejaVuSans-73" transform="translate(684.326172 0)"/>
      <use xlink:href="#DejaVuSans-20" transform="translate(736.425781 0)"/>
      <use xlink:href="#DejaVuSans-77" transform="translate(768.212891 0)"/>
      <use xlink:href="#DejaVuSans-69" transform="translate(850 0)"/>
      <use xlink:href="#DejaVuSans-74" transform="translate(877.783203 0)"/>
      <use xlink:href="#DejaVuSans-68" transform="translate(916.992188 0)"/>
      <use xlink:href="#DejaVuSans-20" transform="translate(980.371094 0)"/>
      <use xlink:href="#DejaVuSans-72" transform="translate(1012.158203 0)"/>
      <use xlink:href="#DejaVuSans-65" transform="translate(1051.021484 0)"/>
      <use xlink:href="#DejaVuSans-73" transform="translate(1112.544922 0)"/>
      <use xlink:href="#DejaVuSans-69" transform="translate(1164.644531 0)"/>
      <use xlink:href="#DejaVuSans-73" transform="translate(1192.427734 0)"/>
      <use xlink:href="#DejaVuSans-74" transform="translate(1244.527344 0)"/>
      <use xlink:href="#DejaVuSans-61" transform="translate(1283.736328 0)"/>
      <use xlink:href="#DejaVuSans-6e" transform="translate(1345.015625 0)"/>
      <use xlink:href="#DejaVuSans-63" transform="translate(1408.394531 0)"/>
      <use xlink:href="#DejaVuSans-65" transform="translate(1463.375 0)"/>
      <use xlink:href="#DejaVuSans-20" transform="translate(1524.898438 0)"/>
      <use xlink:href="#DejaVuSans-28" transform="translate(1556.685547 0)"/>
      <use xlink:href="#DejaVuSans-25" transform="translate(1595.699219 0)"/>
      <use xlink:href="#DejaVuSans-29" transform="translate(1690.71875 0)"/>
     </g>
    </g>
   </g>
   <g id="line2d_18">
    <path d="M 47.933437 317.32 
L 54.783542 317.32 
L 61.633646 317.32 
L 68.48375 317.32 
L 75.333854 317.32 
L 82.183958 317.32 
L 89.034063 317.32 
L 95.884167 311.187692 
L 102.734271 306.883761 
L 109.584375 304.71486 
L 116.434479 303.480638 
L 123.284583 303.734443 
L 130.134687 295.019802 
L 136.984792 292.50039 
L 143.834896 291.348085 
L 150.685 289.171788 
L 157.535104 289.133252 
L 164.385208 288.368649 
L 171.235312 278.464591 
L 178.085417 276.362962 
L 184.935521 273.676777 
L 191.785625 272.308928 
L 198.635729 265.386795 
L 205.485833 266.853351 
L 212.335938 267.414923 
L 219.186042 265.270864 
L 226.036146 265.151249 
L 232.88625 263.919206 
L 239.736354 262.673625 
L 246.586458 261.650542 
L 253.436562 261.325511 
L 260.286667 258.134766 
L 267.136771 258.22471 
L 273.986875 256.34527 
L 280.836979 255.998513 
L 287.687083 256.812917 
L 294.537188 256.528853 
L 301.387292 255.957996 
L 308.237396 255.635179 
L 315.0875 255.272027 
L 321.937604 249.006233 
L 328.787708 250.111422 
L 335.637812 250.348785 
L 342.487917 249.296432 
L 349.338021 250.273026 
L 356.188125 246.186915 
L 363.038229 246.269651 
L 369.888333 246.164975 
L 376.738438 245.173394 
L 383.588542 244.946076 
L 390.438646 243.473548 
L 397.28875 243.53574 
L 404.138854 242.744821 
L 410.988958 242.271261 
L 417.839062 236.255137 
L 424.689167 232.222637 
L 431.539271 231.821115 
L 438.389375 227.601755 
L 445.239479 226.204984 
L 452.089583 225.628452 
L 458.939687 221.77557 
L 465.789792 220.938389 
L 472.639896 221.270578 
L 479.49 220.770475 
L 486.340104 220.1652 
L 493.190208 219.812458 
L 500.040312 220.260338 
L 506.890417 219.823984 
L 513.740521 219.16955 
L 520.590625 219.591975 
L 527.440729 218.29204 
L 534.290833 217.929246 
L 541.140937 217.379834 
L 547.991042 216.6806 
L 554.841146 217.16072 
L 561.69125 217.110359 
L 568.541354 217.36991 
L 575.391458 217.777323 
L 582.241562 217.996172 
L 589.091667 215.606461 
L 595.941771 214.460606 
L 602.791875 214.808414 
L 609.641979 213.380518 
L 616.492083 212.844581 
L 623.342187 212.925654 
L 630.192292 212.796328 
L 637.042396 211.815762 
L 643.8925 212.194498 
L 650.742604 211.836138 
L 657.592708 211.559287 
L 664.442812 212.308704 
L 671.292917 211.921506 
L 678.143021 211.482178 
L 684.993125 211.193552 
L 691.843229 211.202068 
L 698.693333 211.332099 
" clip-path="url(#p921f083329)" style="fill: none; stroke: #1565c0; stroke-width: 1.8; stroke-linecap: square"/>
   </g>
   <g id="line2d_19">
    <path d="M 47.933437 317.32 
L 54.783542 317.32 
L 61.633646 317.32 
L 68.48375 317.32 
L 75.333854 317.32 
L 82.183958 317.32 
L 89.034063 317.32 
L 95.884167 317.32 
L 102.734271 317.32 
L 109.584375 317.32 
L 116.434479 317.32 
L 123.284583 317.32 
L 130.134687 315.915103 
L 136.984792 315.743109 
L 143.834896 315.412835 
L 150.685 315.40902 
L 157.535104 315.184261 
L 164.385208 315.145671 
L 171.235312 312.982855 
L 178.085417 312.47227 
L 184.935521 311.909279 
L 191.785625 311.601299 
L 198.635729 309.773703 
L 205.485833 309.883373 
L 212.335938 309.386443 
L 219.186042 309.32087 
L 226.036146 309.33309 
L 232.88625 309.108943 
L 239.736354 308.923371 
L 246.586458 308.481904 
L 253.436562 308.974257 
L 260.286667 308.838921 
L 267.136771 308.727661 
L 273.986875 308.8081 
L 280.836979 308.52221 
L 287.687083 308.576827 
L 294.537188 308.483846 
L 301.387292 308.791536 
L 308.237396 308.895434 
L 315.0875 308.878772 
L 321.937604 307.344452 
L 328.787708 307.631407 
L 335.637812 307.703152 
L 342.487917 307.345207 
L 349.338021 307.682898 
L 356.188125 307.587217 
L 363.038229 307.463409 
L 369.888333 307.751642 
L 376.738438 308.496961 
L 383.588542 308.043392 
L 390.438646 308.988515 
L 397.28875 308.565569 
L 404.138854 308.049399 
L 410.988958 308.428619 
L 417.839062 307.693001 
L 424.689167 306.514714 
L 431.539271 307.016977 
L 438.389375 305.426329 
L 445.239479 304.113445 
L 452.089583 304.326497 
L 458.939687 302.158277 
L 465.789792 301.631652 
L 472.639896 301.753665 
L 479.49 301.83663 
L 486.340104 301.865775 
L 493.190208 301.414123 
L 500.040312 301.39069 
L 506.890417 301.544249 
L 513.740521 301.694613 
L 520.590625 301.427228 
L 527.440729 299.328405 
L 534.290833 299.155337 
L 541.140937 298.608745 
L 547.991042 298.380163 
L 554.841146 298.330674 
L 561.69125 297.871524 
L 568.541354 298.060307 
L 575.391458 297.723421 
L 582.241562 297.830614 
L 589.091667 292.450146 
L 595.941771 290.192744 
L 602.791875 290.328275 
L 609.641979 287.1331 
L 616.492083 286.6177 
L 623.342187 286.946314 
L 630.192292 287.105534 
L 637.042396 286.509104 
L 643.8925 286.791003 
L 650.742604 286.876918 
L 657.592708 286.474468 
L 664.442812 287.061114 
L 671.292917 286.600931 
L 678.143021 286.49174 
L 684.993125 286.571974 
L 691.843229 286.5708 
L 698.693333 286.305182 
" clip-path="url(#p921f083329)" style="fill: none; stroke: #c65d00; stroke-width: 1.8; stroke-linecap: square"/>
   </g>
   <g id="patch_3">
    <path d="M 47.933438 317.32 
L 47.933438 36.36 
" style="fill: none; stroke: #000000; stroke-width: 0.8; stroke-linejoin: miter; stroke-linecap: square"/>
   </g>
   <g id="patch_4">
    <path d="M 47.933437 317.32 
L 705.543437 317.32 
" style="fill: none; stroke: #000000; stroke-width: 0.8; stroke-linejoin: miter; stroke-linecap: square"/>
   </g>
   <g id="legend_1">
    <g id="text_14">
     <!-- n = 1 run -->
     <g transform="translate(602.472109 50.53875) scale(0.08 -0.08)">
      <defs>
       <path id="DejaVuSans-3d" d="M 678 2906 
L 4684 2906 
L 4684 2381 
L 678 2381 
L 678 2906 
z
M 678 1631 
L 4684 1631 
L 4684 1100 
L 678 1100 
L 678 1631 
z
" transform="scale(0.015625)"/>
       <path id="DejaVuSans-75" d="M 544 1381 
L 544 3500 
L 1119 3500 
L 1119 1403 
Q 1119 906 1312 657 
Q 1506 409 1894 409 
Q 2359 409 2629 706 
Q 2900 1003 2900 1516 
L 2900 3500 
L 3475 3500 
L 3475 0 
L 2900 0 
L 2900 538 
Q 2691 219 2414 64 
Q 2138 -91 1772 -91 
Q 1169 -91 856 284 
Q 544 659 544 1381 
z
M 1991 3584 
L 1991 3584 
z
" transform="scale(0.015625)"/>
      </defs>
      <use xlink:href="#DejaVuSans-6e"/>
      <use xlink:href="#DejaVuSans-20" transform="translate(63.378906 0)"/>
      <use xlink:href="#DejaVuSans-3d" transform="translate(95.166016 0)"/>
      <use xlink:href="#DejaVuSans-20" transform="translate(178.955078 0)"/>
      <use xlink:href="#DejaVuSans-31" transform="translate(210.742188 0)"/>
      <use xlink:href="#DejaVuSans-20" transform="translate(274.365234 0)"/>
      <use xlink:href="#DejaVuSans-72" transform="translate(306.152344 0)"/>
      <use xlink:href="#DejaVuSans-75" transform="translate(347.265625 0)"/>
      <use xlink:href="#DejaVuSans-6e" transform="translate(410.644531 0)"/>
     </g>
    </g>
    <g id="line2d_20">
     <path d="M 545.420781 60.391094 
L 554.420781 60.391094 
L 563.420781 60.391094 
" style="fill: none; stroke: #1565c0; stroke-width: 1.8; stroke-linecap: square"/>
    </g>
    <g id="text_15">
     <!-- Any resistance -->
     <g transform="translate(570.620781 63.541094) scale(0.09 -0.09)">
      <defs>
       <path id="DejaVuSans-41" d="M 2188 4044 
L 1331 1722 
L 3047 1722 
L 2188 4044 
z
M 1831 4666 
L 2547 4666 
L 4325 0 
L 3669 0 
L 3244 1197 
L 1141 1197 
L 716 0 
L 50 0 
L 1831 4666 
z
" transform="scale(0.015625)"/>
       <path id="DejaVuSans-79" d="M 2059 -325 
Q 1816 -950 1584 -1140 
Q 1353 -1331 966 -1331 
L 506 -1331 
L 506 -850 
L 844 -850 
Q 1081 -850 1212 -737 
Q 1344 -625 1503 -206 
L 1606 56 
L 191 3500 
L 800 3500 
L 1894 763 
L 2988 3500 
L 3597 3500 
L 2059 -325 
z
" transform="scale(0.015625)"/>
      </defs>
      <use xlink:href="#DejaVuSans-41"/>
      <use xlink:href="#DejaVuSans-6e" transform="translate(68.408203 0)"/>
      <use xlink:href="#DejaVuSans-79" transform="translate(131.787109 0)"/>
      <use xlink:href="#DejaVuSans-20" transform="translate(190.966797 0)"/>
      <use xlink:href="#DejaVuSans-72" transform="translate(222.753906 0)"/>
      <use xlink:href="#DejaVuSans-65" transform="translate(261.617188 0)"/>
      <use xlink:href="#DejaVuSans-73" transform="translate(323.140625 0)"/>
      <use xlink:href="#DejaVuSans-69" transform="translate(375.240234 0)"/>
      <use xlink:href="#DejaVuSans-73" transform="translate(403.023438 0)"/>
      <use xlink:href="#DejaVuSans-74" transform="translate(455.123047 0)"/>
      <use xlink:href="#DejaVuSans-61" transform="translate(494.332031 0)"/>
      <use xlink:href="#DejaVuSans-6e" transform="translate(555.611328 0)"/>
      <use xlink:href="#DejaVuSans-63" transform="translate(618.990234 0)"/>
      <use xlink:href="#DejaVuSans-65" transform="translate(673.970703 0)"/>
     </g>
    </g>
    <g id="line2d_21">
     <path d="M 545.420781 73.601406 
L 554.420781 73.601406 
L 563.420781 73.601406 
" style="fill: none; stroke: #c65d00; stroke-width: 1.8; stroke-linecap: square"/>
    </g>
    <g id="text_16">
     <!-- Serious-R marker resistance -->
     <g transform="translate(570.620781 76.751406) scale(0.09 -0.09)">
      <defs>
       <path id="DejaVuSans-53" d="M 3425 4513 
L 3425 3897 
Q 3066 4069 2747 4153 
Q 2428 4238 2131 4238 
Q 1616 4238 1336 4038 
Q 1056 3838 1056 3469 
Q 1056 3159 1242 3001 
Q 1428 2844 1947 2747 
L 2328 2669 
Q 3034 2534 3370 2195 
Q 3706 1856 3706 1288 
Q 3706 609 3251 259 
Q 2797 -91 1919 -91 
Q 1588 -91 1214 -16 
Q 841 59 441 206 
L 441 856 
Q 825 641 1194 531 
Q 1563 422 1919 422 
Q 2459 422 2753 634 
Q 3047 847 3047 1241 
Q 3047 1584 2836 1778 
Q 2625 1972 2144 2069 
L 1759 2144 
Q 1053 2284 737 2584 
Q 422 2884 422 3419 
Q 422 4038 858 4394 
Q 1294 4750 2059 4750 
Q 2388 4750 2728 4690 
Q 3069 4631 3425 4513 
z
" transform="scale(0.015625)"/>
       <path id="DejaVuSans-2d" d="M 313 2009 
L 1997 2009 
L 1997 1497 
L 313 1497 
L 313 2009 
z
" transform="scale(0.015625)"/>
       <path id="DejaVuSans-52" d="M 2841 2188 
Q 3044 2119 3236 1894 
Q 3428 1669 3622 1275 
L 4263 0 
L 3584 0 
L 2988 1197 
Q 2756 1666 2539 1819 
Q 2322 1972 1947 1972 
L 1259 1972 
L 1259 0 
L 628 0 
L 628 4666 
L 2053 4666 
Q 2853 4666 3247 4331 
Q 3641 3997 3641 3322 
Q 3641 2881 3436 2590 
Q 3231 2300 2841 2188 
z
M 1259 4147 
L 1259 2491 
L 2053 2491 
Q 2509 2491 2742 2702 
Q 2975 2913 2975 3322 
Q 2975 3731 2742 3939 
Q 2509 4147 2053 4147 
L 1259 4147 
z
" transform="scale(0.015625)"/>
       <path id="DejaVuSans-6d" d="M 3328 2828 
Q 3544 3216 3844 3400 
Q 4144 3584 4550 3584 
Q 5097 3584 5394 3201 
Q 5691 2819 5691 2113 
L 5691 0 
L 5113 0 
L 5113 2094 
Q 5113 2597 4934 2840 
Q 4756 3084 4391 3084 
Q 3944 3084 3684 2787 
Q 3425 2491 3425 1978 
L 3425 0 
L 2847 0 
L 2847 2094 
Q 2847 2600 2669 2842 
Q 2491 3084 2119 3084 
Q 1678 3084 1418 2786 
Q 1159 2488 1159 1978 
L 1159 0 
L 581 0 
L 581 3500 
L 1159 3500 
L 1159 2956 
Q 1356 3278 1631 3431 
Q 1906 3584 2284 3584 
Q 2666 3584 2933 3390 
Q 3200 3197 3328 2828 
z
" transform="scale(0.015625)"/>
       <path id="DejaVuSans-6b" d="M 581 4863 
L 1159 4863 
L 1159 1991 
L 2875 3500 
L 3609 3500 
L 1753 1863 
L 3688 0 
L 2938 0 
L 1159 1709 
L 1159 0 
L 581 0 
L 581 4863 
z
" transform="scale(0.015625)"/>
      </defs>
      <use xlink:href="#DejaVuSans-53"/>
      <use xlink:href="#DejaVuSans-65" transform="translate(63.476562 0)"/>
      <use xlink:href="#DejaVuSans-72" transform="translate(125 0)"/>
      <use xlink:href="#DejaVuSans-69" transform="translate(166.113281 0)"/>
      <use xlink:href="#DejaVuSans-6f" transform="translate(193.896484 0)"/>
      <use xlink:href="#DejaVuSans-75" transform="translate(255.078125 0)"/>
      <use xlink:href="#DejaVuSans-73" transform="translate(318.457031 0)"/>
      <use xlink:href="#DejaVuSans-2d" transform="translate(370.556641 0)"/>
      <use xlink:href="#DejaVuSans-52" transform="translate(406.640625 0)"/>
      <use xlink:href="#DejaVuSans-20" transform="translate(476.123047 0)"/>
      <use xlink:href="#DejaVuSans-6d" transform="translate(507.910156 0)"/>
      <use xlink:href="#DejaVuSans-61" transform="translate(605.322266 0)"/>
      <use xlink:href="#DejaVuSans-72" transform="translate(666.601562 0)"/>
      <use xlink:href="#DejaVuSans-6b" transform="translate(707.714844 0)"/>
      <use xlink:href="#DejaVuSans-65" transform="translate(762 0)"/>
      <use xlink:href="#DejaVuSans-72" transform="translate(823.523438 0)"/>
      <use xlink:href="#DejaVuSans-20" transform="translate(864.636719 0)"/>
      <use xlink:href="#DejaVuSans-72" transform="translate(896.423828 0)"/>
      <use xlink:href="#DejaVuSans-65" transform="translate(935.287109 0)"/>
      <use xlink:href="#DejaVuSans-73" transform="translate(996.810547 0)"/>
      <use xlink:href="#DejaVuSans-69" transform="translate(1048.910156 0)"/>
      <use xlink:href="#DejaVuSans-73" transform="translate(1076.693359 0)"/>
      <use xlink:href="#DejaVuSans-74" transform="translate(1128.792969 0)"/>
      <use xlink:href="#DejaVuSans-61" transform="translate(1168.001953 0)"/>
      <use xlink:href="#DejaVuSans-6e" transform="translate(1229.28125 0)"/>
      <use xlink:href="#DejaVuSans-63" transform="translate(1292.660156 0)"/>
      <use xlink:href="#DejaVuSans-65" transform="translate(1347.640625 0)"/>
     </g>
    </g>
   </g>
  </g>
  <g id="text_17">
   <!-- Figure 6A. Resistance trends -->
   <g transform="translate(266.544766 15.558281) scale(0.11 -0.11)">
    <defs>
     <path id="DejaVuSans-Bold-46" d="M 588 4666 
L 3834 4666 
L 3834 3756 
L 1791 3756 
L 1791 2888 
L 3713 2888 
L 3713 1978 
L 1791 1978 
L 1791 0 
L 588 0 
L 588 4666 
z
" transform="scale(0.015625)"/>
     <path id="DejaVuSans-Bold-69" d="M 538 3500 
L 1656 3500 
L 1656 0 
L 538 0 
L 538 3500 
z
M 538 4863 
L 1656 4863 
L 1656 3950 
L 538 3950 
L 538 4863 
z
" transform="scale(0.015625)"/>
     <path id="DejaVuSans-Bold-67" d="M 2919 594 
Q 2688 288 2409 144 
Q 2131 0 1766 0 
Q 1125 0 706 504 
Q 288 1009 288 1791 
Q 288 2575 706 3076 
Q 1125 3578 1766 3578 
Q 2131 3578 2409 3434 
Q 2688 3291 2919 2981 
L 2919 3500 
L 4044 3500 
L 4044 353 
Q 4044 -491 3511 -936 
Q 2978 -1381 1966 -1381 
Q 1638 -1381 1331 -1331 
Q 1025 -1281 716 -1178 
L 716 -306 
Q 1009 -475 1290 -558 
Q 1572 -641 1856 -641 
Q 2406 -641 2662 -400 
Q 2919 -159 2919 353 
L 2919 594 
z
M 2181 2772 
Q 1834 2772 1640 2515 
Q 1447 2259 1447 1791 
Q 1447 1309 1634 1061 
Q 1822 813 2181 813 
Q 2531 813 2725 1069 
Q 2919 1325 2919 1791 
Q 2919 2259 2725 2515 
Q 2531 2772 2181 2772 
z
" transform="scale(0.015625)"/>
     <path id="DejaVuSans-Bold-75" d="M 500 1363 
L 500 3500 
L 1625 3500 
L 1625 3150 
Q 1625 2866 1622 2436 
Q 1619 2006 1619 1863 
Q 1619 1441 1641 1255 
Q 1663 1069 1716 984 
Q 1784 875 1895 815 
Q 2006 756 2150 756 
Q 2500 756 2700 1025 
Q 2900 1294 2900 1772 
L 2900 3500 
L 4019 3500 
L 4019 0 
L 2900 0 
L 2900 506 
Q 2647 200 2364 54 
Q 2081 -91 1741 -91 
Q 1134 -91 817 281 
Q 500 653 500 1363 
z
" transform="scale(0.015625)"/>
     <path id="DejaVuSans-Bold-72" d="M 3138 2547 
Q 2991 2616 2845 2648 
Q 2700 2681 2553 2681 
Q 2122 2681 1889 2404 
Q 1656 2128 1656 1613 
L 1656 0 
L 538 0 
L 538 3500 
L 1656 3500 
L 1656 2925 
Q 1872 3269 2151 3426 
Q 2431 3584 2822 3584 
Q 2878 3584 2943 3579 
Q 3009 3575 3134 3559 
L 3138 2547 
z
" transform="scale(0.015625)"/>
     <path id="DejaVuSans-Bold-65" d="M 4031 1759 
L 4031 1441 
L 1416 1441 
Q 1456 1047 1700 850 
Q 1944 653 2381 653 
Q 2734 653 3104 758 
Q 3475 863 3866 1075 
L 3866 213 
Q 3469 63 3072 -14 
Q 2675 -91 2278 -91 
Q 1328 -91 801 392 
Q 275 875 275 1747 
Q 275 2603 792 3093 
Q 1309 3584 2216 3584 
Q 3041 3584 3536 3087 
Q 4031 2591 4031 1759 
z
M 2881 2131 
Q 2881 2450 2695 2645 
Q 2509 2841 2209 2841 
Q 1884 2841 1681 2658 
Q 1478 2475 1428 2131 
L 2881 2131 
z
" transform="scale(0.015625)"/>
     <path id="DejaVuSans-Bold-20" transform="scale(0.015625)"/>
     <path id="DejaVuSans-Bold-36" d="M 2316 2303 
Q 2000 2303 1842 2098 
Q 1684 1894 1684 1484 
Q 1684 1075 1842 870 
Q 2000 666 2316 666 
Q 2634 666 2792 870 
Q 2950 1075 2950 1484 
Q 2950 1894 2792 2098 
Q 2634 2303 2316 2303 
z
M 3803 4544 
L 3803 3681 
Q 3506 3822 3243 3889 
Q 2981 3956 2731 3956 
Q 2194 3956 1894 3657 
Q 1594 3359 1544 2772 
Q 1750 2925 1990 3001 
Q 2231 3078 2516 3078 
Q 3231 3078 3670 2659 
Q 4109 2241 4109 1563 
Q 4109 813 3618 361 
Q 3128 -91 2303 -91 
Q 1394 -91 895 523 
Q 397 1138 397 2266 
Q 397 3422 980 4083 
Q 1563 4744 2578 4744 
Q 2900 4744 3203 4694 
Q 3506 4644 3803 4544 
z
" transform="scale(0.015625)"/>
     <path id="DejaVuSans-Bold-41" d="M 3419 850 
L 1538 850 
L 1241 0 
L 31 0 
L 1759 4666 
L 3194 4666 
L 4922 0 
L 3713 0 
L 3419 850 
z
M 1838 1716 
L 3116 1716 
L 2478 3572 
L 1838 1716 
z
" transform="scale(0.015625)"/>
     <path id="DejaVuSans-Bold-2e" d="M 653 1209 
L 1778 1209 
L 1778 0 
L 653 0 
L 653 1209 
z
" transform="scale(0.015625)"/>
     <path id="DejaVuSans-Bold-52" d="M 2297 2597 
Q 2675 2597 2839 2737 
Q 3003 2878 3003 3200 
Q 3003 3519 2839 3656 
Q 2675 3794 2297 3794 
L 1791 3794 
L 1791 2597 
L 2297 2597 
z
M 1791 1766 
L 1791 0 
L 588 0 
L 588 4666 
L 2425 4666 
Q 3347 4666 3776 4356 
Q 4206 4047 4206 3378 
Q 4206 2916 3982 2619 
Q 3759 2322 3309 2181 
Q 3556 2125 3751 1926 
Q 3947 1728 4147 1325 
L 4800 0 
L 3519 0 
L 2950 1159 
Q 2778 1509 2601 1637 
Q 2425 1766 2131 1766 
L 1791 1766 
z
" transform="scale(0.015625)"/>
     <path id="DejaVuSans-Bold-73" d="M 3272 3391 
L 3272 2541 
Q 2913 2691 2578 2766 
Q 2244 2841 1947 2841 
Q 1628 2841 1473 2761 
Q 1319 2681 1319 2516 
Q 1319 2381 1436 2309 
Q 1553 2238 1856 2203 
L 2053 2175 
Q 2913 2066 3209 1816 
Q 3506 1566 3506 1031 
Q 3506 472 3093 190 
Q 2681 -91 1863 -91 
Q 1516 -91 1145 -36 
Q 775 19 384 128 
L 384 978 
Q 719 816 1070 734 
Q 1422 653 1784 653 
Q 2113 653 2278 743 
Q 2444 834 2444 1013 
Q 2444 1163 2330 1236 
Q 2216 1309 1875 1350 
L 1678 1375 
Q 931 1469 631 1722 
Q 331 1975 331 2491 
Q 331 3047 712 3315 
Q 1094 3584 1881 3584 
Q 2191 3584 2531 3537 
Q 2872 3491 3272 3391 
z
" transform="scale(0.015625)"/>
     <path id="DejaVuSans-Bold-74" d="M 1759 4494 
L 1759 3500 
L 2913 3500 
L 2913 2700 
L 1759 2700 
L 1759 1216 
Q 1759 972 1856 886 
Q 1953 800 2241 800 
L 2816 800 
L 2816 0 
L 1856 0 
Q 1194 0 917 276 
Q 641 553 641 1216 
L 641 2700 
L 84 2700 
L 84 3500 
L 641 3500 
L 641 4494 
L 1759 4494 
z
" transform="scale(0.015625)"/>
     <path id="DejaVuSans-Bold-61" d="M 2106 1575 
Q 1756 1575 1579 1456 
Q 1403 1338 1403 1106 
Q 1403 894 1545 773 
Q 1688 653 1941 653 
Q 2256 653 2472 879 
Q 2688 1106 2688 1447 
L 2688 1575 
L 2106 1575 
z
M 3816 1997 
L 3816 0 
L 2688 0 
L 2688 519 
Q 2463 200 2181 54 
Q 1900 -91 1497 -91 
Q 953 -91 614 226 
Q 275 544 275 1050 
Q 275 1666 698 1953 
Q 1122 2241 2028 2241 
L 2688 2241 
L 2688 2328 
Q 2688 2594 2478 2717 
Q 2269 2841 1825 2841 
Q 1466 2841 1156 2769 
Q 847 2697 581 2553 
L 581 3406 
Q 941 3494 1303 3539 
Q 1666 3584 2028 3584 
Q 2975 3584 3395 3211 
Q 3816 2838 3816 1997 
z
" transform="scale(0.015625)"/>
     <path id="DejaVuSans-Bold-6e" d="M 4056 2131 
L 4056 0 
L 2931 0 
L 2931 347 
L 2931 1631 
Q 2931 2084 2911 2256 
Q 2891 2428 2841 2509 
Q 2775 2619 2662 2680 
Q 2550 2741 2406 2741 
Q 2056 2741 1856 2470 
Q 1656 2200 1656 1722 
L 1656 0 
L 538 0 
L 538 3500 
L 1656 3500 
L 1656 2988 
Q 1909 3294 2193 3439 
Q 2478 3584 2822 3584 
Q 3428 3584 3742 3212 
Q 4056 2841 4056 2131 
z
" transform="scale(0.015625)"/>
     <path id="DejaVuSans-Bold-63" d="M 3366 3391 
L 3366 2478 
Q 3138 2634 2908 2709 
Q 2678 2784 2431 2784 
Q 1963 2784 1702 2511 
Q 1441 2238 1441 1747 
Q 1441 1256 1702 982 
Q 1963 709 2431 709 
Q 2694 709 2930 787 
Q 3166 866 3366 1019 
L 3366 103 
Q 3103 6 2833 -42 
Q 2563 -91 2291 -91 
Q 1344 -91 809 395 
Q 275 881 275 1747 
Q 275 2613 809 3098 
Q 1344 3584 2291 3584 
Q 2566 3584 2833 3536 
Q 3100 3488 3366 3391 
z
" transform="scale(0.015625)"/>
     <path id="DejaVuSans-Bold-64" d="M 2919 2988 
L 2919 4863 
L 4044 4863 
L 4044 0 
L 2919 0 
L 2919 506 
Q 2688 197 2409 53 
Q 2131 -91 1766 -91 
Q 1119 -91 703 423 
Q 288 938 288 1747 
Q 288 2556 703 3070 
Q 1119 3584 1766 3584 
Q 2128 3584 2408 3439 
Q 2688 3294 2919 2988 
z
M 2181 722 
Q 2541 722 2730 984 
Q 2919 1247 2919 1747 
Q 2919 2247 2730 2509 
Q 2541 2772 2181 2772 
Q 1825 2772 1636 2509 
Q 1447 2247 1447 1747 
Q 1447 1247 1636 984 
Q 1825 722 2181 722 
z
" transform="scale(0.015625)"/>
    </defs>
    <use xlink:href="#DejaVuSans-Bold-46"/>
    <use xlink:href="#DejaVuSans-Bold-69" transform="translate(68.310547 0)"/>
    <use xlink:href="#DejaVuSans-Bold-67" transform="translate(102.587891 0)"/>
    <use xlink:href="#DejaVuSans-Bold-75" transform="translate(174.169922 0)"/>
    <use xlink:href="#DejaVuSans-Bold-72" transform="translate(245.361328 0)"/>
    <use xlink:href="#DejaVuSans-Bold-65" transform="translate(294.677734 0)"/>
    <use xlink:href="#DejaVuSans-Bold-20" transform="translate(362.5 0)"/>
    <use xlink:href="#DejaVuSans-Bold-36" transform="translate(397.314453 0)"/>
    <use xlink:href="#DejaVuSans-Bold-41" transform="translate(466.894531 0)"/>
    <use xlink:href="#DejaVuSans-Bold-2e" transform="translate(546.162109 0)"/>
    <use xlink:href="#DejaVuSans-Bold-20" transform="translate(584.150391 0)"/>
    <use xlink:href="#DejaVuSans-Bold-52" transform="translate(618.964844 0)"/>
    <use xlink:href="#DejaVuSans-Bold-65" transform="translate(695.966797 0)"/>
    <use xlink:href="#DejaVuSans-Bold-73" transform="translate(763.789062 0)"/>
    <use xlink:href="#DejaVuSans-Bold-69" transform="translate(823.310547 0)"/>
    <use xlink:href="#DejaVuSans-Bold-73" transform="translate(857.587891 0)"/>
    <use xlink:href="#DejaVuSans-Bold-74" transform="translate(917.109375 0)"/>
    <use xlink:href="#DejaVuSans-Bold-61" transform="translate(964.912109 0)"/>
    <use xlink:href="#DejaVuSans-Bold-6e" transform="translate(1032.392578 0)"/>
    <use xlink:href="#DejaVuSans-Bold-63" transform="translate(1103.583984 0)"/>
    <use xlink:href="#DejaVuSans-Bold-65" transform="translate(1162.861328 0)"/>
    <use xlink:href="#DejaVuSans-Bold-20" transform="translate(1230.683594 0)"/>
    <use xlink:href="#DejaVuSans-Bold-74" transform="translate(1265.498047 0)"/>
    <use xlink:href="#DejaVuSans-Bold-72" transform="translate(1313.300781 0)"/>
    <use xlink:href="#DejaVuSans-Bold-65" transform="translate(1362.617188 0)"/>
    <use xlink:href="#DejaVuSans-Bold-6e" transform="translate(1430.439453 0)"/>
    <use xlink:href="#DejaVuSans-Bold-64" transform="translate(1501.630859 0)"/>
    <use xlink:href="#DejaVuSans-Bold-73" transform="translate(1573.212891 0)"/>
   </g>
  </g>
 </g>
 <defs>
  <clipPath id="p921f083329">
   <rect x="47.933438" y="36.36" width="657.61" height="280.96"/>
  </clipPath>
 </defs>
</svg>
